# xmcd
#
# Track frame offsets: 
#        183
#        27983
#        36260
#        60928
#        77818
#        96200
#        105470
#        128070
#        142128
#        157950
#        180288
#
# Disc length: 2746 seconds
#
# Revision: 2
# Processed by: cddbd v1.4PL0 Copyright (c) Steve Scherf et al.
# Submitted via: ExactAudioCopy v0.95a3
#
DISCID=840ab80b
DTITLE=Stanisaw Sojka and Janusz "Janina" Iwanski - In Concert
DYEAR=1990
DGENRE=Vocal
TTITLE0=Niech caluja Cie Moje Oczy
TTITLE1=Popoludniowe Miasto
TTITLE2=Hallelujah I Love Her So
TTITLE3=Czas Nas Uczy Pogody
TTITLE4=Do Widzenia Mowilismy
TTITLE5=Seventh Son
TTITLE6=Modlitwa
TTITLE7=Intro Z.P.
TTITLE8=Zaczepka Platoniczna
TTITLE9=Nocny Papieros
TTITLE10=Dobranoc (Wszyscy  Swieci)
EXTD=
EXTT0=
EXTT1=
EXTT2=
EXTT3=
EXTT4=
EXTT5=
EXTT6=
EXTT7=
EXTT8=
EXTT9=
EXTT10=
PLAYORDER=
